<?xml version="1.0" encoding="utf-8"?>
<!-- Generator: Adobe Illustrator 23.0.6, SVG Export Plug-In . SVG Version: 6.00 Build 0)  -->
<svg version="1.1" xmlns="http://www.w3.org/2000/svg" xmlns:xlink="http://www.w3.org/1999/xlink" x="0px" y="0px"
	 viewBox="0 0 2742.6 512" style="enable-background:new 0 0 2742.6 512;" xml:space="preserve">
<style type="text/css">
	.st0{display:none;}
	.st1{display:inline;fill:#FBBA33;stroke:#000000;stroke-miterlimit:10;}
	.st2{fill:#FFFFFF;}
	.st3{fill:#C6C6C6;}
	.st4{display:inline;fill:#FBBA33;}
	.st5{font-family:'KabobBlack';}
	.st6{font-size:451.4681px;}
	.st7{display:inline;}
	.st8{fill:#FBBA33;}
	.st9{fill:#C98A1B;}
</style>
<g id="Ebene_2" class="st0">
	<rect class="st1" width="2742.6" height="512"/>
</g>
<g id="Weiß">
	<g>
		<path class="st2" d="M24.8,118.3h158l22.6,85.8h-81.7V242h55.1v79h-55.1v93.5l-98.9,9V118.3z"/>
		<path class="st2" d="M232.1,122.8l98.9-9v216.3h101.1l-20.3,89.4H232.1V122.8z"/>
		<path class="st2" d="M535,118.3h114.2L749,414.5l-99.8,9L633,372.9h-83.1L535,423.5l-101.6-9L535,118.3z M590.5,206.8l-23,90.7h46
			L590.5,206.8z"/>
		<path class="st2" d="M1246,122.8l98.9-9v107.4h56v-98.4l98.4-9v300.7l-98.4,9v-116h-56v107l-98.9,9V122.8z"/>
		<path class="st2" d="M1549.4,122.8l98.9-9v216.3h101.1l-20.3,89.4h-179.7V122.8z"/>
		<path class="st2" d="M1778.8,122.8l98.9-9v300.7l-98.9,9V122.8z"/>
		<path class="st2" d="M2186,401.8c-19.3,7.8-37.7,13.9-55.3,18.3c-17.6,4.4-35.4,6.5-53.5,6.5c-47.9,0-87-15.2-117.4-45.6
			c-30.4-30.4-45.6-67.7-45.6-112c0-42.1,14.6-78.4,43.8-108.8c31.6-32.8,71.9-49.2,121-49.2c20.8,0,39.3,2.6,55.5,7.9
			c16.3,5.3,33.4,13.9,51.5,26l-51.9,75.8c-8.4-6.9-17.1-12.3-26-16.3c-8.9-3.9-18.3-5.9-28.2-5.9c-18.4,0-33.8,7-46.3,21
			c-12.5,14-18.7,30.5-18.7,49.4c0,17.8,5.9,33.6,17.6,47.6s26.3,21,43.8,21l17.2-1.4v-28.4h-46.5l17.2-69.5H2186V401.8z"/>
		<path class="st2" d="M2232.9,122.8l98.9-9v107.4h56v-98.4l98.4-9v300.7l-98.4,9v-116h-56v107l-98.9,9V122.8z"/>
		<path class="st2" d="M2530.5,118.3h200.9v85.8h-55.1v210.4l-98.9,9V204.1h-67.7L2530.5,118.3z"/>
	</g>
	<g>
		<path class="st2" d="M1179.9,201.2H1020l49.7-188.4c2.8-10.5-10.5-17.4-17.6-9.2L803.8,294c-5.6,6.6-1,16.8,7.7,16.8h159.9
			l-49.7,188.4c-2.8,10.5,10.5,17.4,17.6,9.2L1187.6,218C1193.3,211.4,1188.6,201.2,1179.9,201.2L1179.9,201.2z"/>
		<g>
			<path class="st3" d="M1020,201.2h-19.6c-6.8,0-11.7-6.4-10-12.9l42.9-162.7l18.8-22c7-8.2,20.3-1.3,17.6,9.2L1020,201.2z"/>
			<path class="st3" d="M1187.7,218L939.4,508.4c-7,8.2-20.3,1.3-17.6-9.2l3.4-12.8L1154.7,218c5.6-6.6,0.9-16.8-7.7-16.8h33
				C1188.6,201.2,1193.3,211.4,1187.7,218L1187.7,218z"/>
		</g>
	</g>
</g>
<g id="Bunt" class="st0">
	<text transform="matrix(1 0 0 1 2.100000e-04 419.4476)" class="st4 st5 st6">FLA   HLIGHT</text>
	<g class="st7">
		<path class="st8" d="M1179.9,201.2H1020l49.7-188.4c2.8-10.5-10.5-17.4-17.6-9.2L803.9,294c-5.6,6.6-1,16.8,7.7,16.8h159.9
			l-49.7,188.4c-2.8,10.5,10.5,17.4,17.6,9.2L1187.7,218C1193.3,211.4,1188.6,201.2,1179.9,201.2L1179.9,201.2z"/>
		<g>
			<path class="st9" d="M1020,201.2h-19.6c-6.8,0-11.7-6.4-10-12.9l42.9-162.7l18.8-22c7-8.2,20.3-1.3,17.6,9.2L1020,201.2z"/>
			<path class="st9" d="M1187.7,218L939.4,508.4c-7,8.2-20.3,1.3-17.6-9.2l3.4-12.8L1154.7,218c5.6-6.6,0.9-16.8-7.7-16.8h33
				C1188.6,201.2,1193.3,211.4,1187.7,218L1187.7,218z"/>
		</g>
	</g>
</g>
<g id="Ebene_4" class="st0">
</g>
</svg>
